<svg width="168" height="92" viewBox="0 0 168 92" fill="none" xmlns="http://www.w3.org/2000/svg">
<path d="M21.7028 5.165C13.773 10.3939 7.88784 64.2413 13.5182 71.9438C22.4467 84.1587 68.9675 82.6896 72.8228 47.581C75.0143 27.6247 48.4416 32.5684 39.7543 36.0801C27.3854 41.0799 27.2659 52.7442 41.7698 50.3398C56.2737 47.9355 61.2842 21.9434 54.2675 14.157C47.2507 6.37051 21.7028 5.165 21.7028 5.165Z" stroke="black" stroke-width="9"/>
<path d="M125.177 72.0649L123.52 38.1077C123.472 37.1238 122.199 36.728 121.67 37.5334C117.795 43.4375 108.411 57.3146 105.691 57.5086C99.206 57.9708 92.4215 47.3994 89.4994 42.2184C89.0135 41.357 87.6834 41.5417 87.5312 42.501L82.1257 76.5824" stroke="black" stroke-width="9"/>
<path d="M163.998 56.8651C163.092 69.4136 142.078 69.8144 139.991 62.2104C137.048 51.488 148.723 32.4253 157.685 37.6879C164.275 41.5572 163.998 56.8651 163.998 56.8651Z" stroke="black" stroke-width="8"/>
</svg>
